ply
format ascii 1.0
element vertex 162
property float x
property float y
property float z
element face 320
property list int int vertex_index
element edge 480
property int source
property int target
property list int int face_index
element volume 1
property list int int face_index
property int label
end_header
0.0 -5.25730945281 8.50650911463 
8.50650911463 0.0 5.25730945281 
8.50650911463 0.0 -5.25730945281 
-8.50650911463 0.0 -5.25730945281 
-8.50650911463 0.0 5.25730945281 
-5.25730945281 8.50650911463 0.0 
5.25730945281 8.50650911463 0.0 
5.25730945281 -8.50650911463 0.0 
-5.25730945281 -8.50650911463 0.0 
0.0 -5.25730945281 -8.50650911463 
0.0 5.25730945281 -8.50650911463 
0.0 5.25730945281 8.50650911463 
5.00000075759 -3.09016905675 8.09016981434 
-5.00000075759 -3.09016905675 8.09016981434 
3.09016905675 -8.09016981434 5.00000075759 
-3.09016905675 -8.09016981434 5.00000075759 
0.0 0.0 10.0 
10.0 0.0 0.0 
8.09016981434 5.00000075759 3.09016905675 
8.09016981434 -5.00000075759 3.09016905675 
5.00000075759 3.09016905675 8.09016981434 
8.09016981434 5.00000075759 -3.09016905675 
8.09016981434 -5.00000075759 -3.09016905675 
5.00000075759 -3.09016905675 -8.09016981434 
5.00000075759 3.09016905675 -8.09016981434 
-10.0 0.0 0.0 
-8.09016981434 5.00000075759 -3.09016905675 
-8.09016981434 -5.00000075759 -3.09016905675 
-5.00000075759 -3.09016905675 -8.09016981434 
-5.00000075759 3.09016905675 -8.09016981434 
-8.09016981434 5.00000075759 3.09016905675 
-8.09016981434 -5.00000075759 3.09016905675 
-5.00000075759 3.09016905675 8.09016981434 
0.0 10.0 0.0 
-3.09016905675 8.09016981434 -5.00000075759 
-3.09016905675 8.09016981434 5.00000075759 
3.09016905675 8.09016981434 -5.00000075759 
3.09016905675 8.09016981434 5.00000075759 
0.0 -10.0 0.0 
3.09016905675 -8.09016981434 -5.00000075759 
-3.09016905675 -8.09016981434 -5.00000075759 
0.0 0.0 -10.0 
2.38855674713 -4.42862581914 8.64187884778 
-2.38855674713 -4.42862581914 8.64187884778 
1.47620860638 -6.81718256628 7.1656702414 
-1.47620860638 -6.81718256628 7.1656702414 
0.0 -2.9524169065 9.55422599744 
9.55422599744 0.0 2.9524169065 
8.64187884778 2.38855674713 4.42862581914 
8.64187884778 -2.38855674713 4.42862581914 
7.1656702414 1.47620860638 6.81718256628 
8.64187884778 2.38855674713 -4.42862581914 
8.64187884778 -2.38855674713 -4.42862581914 
7.1656702414 -1.47620860638 -6.81718256628 
7.1656702414 1.47620860638 -6.81718256628 
-9.55422599744 0.0 -2.9524169065 
-8.64187884778 2.38855674713 -4.42862581914 
-8.64187884778 -2.38855674713 -4.42862581914 
-7.1656702414 -1.47620860638 -6.81718256628 
-7.1656702414 1.47620860638 -6.81718256628 
-8.64187884778 2.38855674713 4.42862581914 
-8.64187884778 -2.38855674713 4.42862581914 
-7.1656702414 1.47620860638 6.81718256628 
-2.9524169065 9.55422599744 0.0 
-4.42862581914 8.64187884778 -2.38855674713 
-4.42862581914 8.64187884778 2.38855674713 
4.42862581914 8.64187884778 -2.38855674713 
4.42862581914 8.64187884778 2.38855674713 
2.9524169065 -9.55422599744 0.0 
4.42862581914 -8.64187884778 -2.38855674713 
-4.42862581914 -8.64187884778 -2.38855674713 
0.0 -2.9524169065 -9.55422599744 
7.1656702414 -1.47620860638 6.81718256628 
-7.1656702414 -1.47620860638 6.81718256628 
4.42862581914 -8.64187884778 2.38855674713 
-4.42862581914 -8.64187884778 2.38855674713 
0.0 2.9524169065 9.55422599744 
9.55422599744 0.0 -2.9524169065 
6.81718256628 7.1656702414 1.47620860638 
6.81718256628 -7.1656702414 1.47620860638 
2.38855674713 4.42862581914 8.64187884778 
6.81718256628 7.1656702414 -1.47620860638 
6.81718256628 -7.1656702414 -1.47620860638 
2.38855674713 -4.42862581914 -8.64187884778 
2.38855674713 4.42862581914 -8.64187884778 
-9.55422599744 0.0 2.9524169065 
-6.81718256628 7.1656702414 -1.47620860638 
-6.81718256628 -7.1656702414 -1.47620860638 
-2.38855674713 -4.42862581914 -8.64187884778 
-2.38855674713 4.42862581914 -8.64187884778 
-6.81718256628 7.1656702414 1.47620860638 
-6.81718256628 -7.1656702414 1.47620860638 
-2.38855674713 4.42862581914 8.64187884778 
2.9524169065 9.55422599744 0.0 
-1.47620860638 6.81718256628 -7.1656702414 
-1.47620860638 6.81718256628 7.1656702414 
1.47620860638 6.81718256628 -7.1656702414 
1.47620860638 6.81718256628 7.1656702414 
-2.9524169065 -9.55422599744 0.0 
1.47620860638 -6.81718256628 -7.1656702414 
-1.47620860638 -6.81718256628 -7.1656702414 
0.0 2.9524169065 -9.55422599744 
9.510565205 2.62865576914 1.62459789757 
8.50650768967 5.25731175845 0.0 
9.510565205 2.62865576914 -1.62459789757 
9.510565205 -2.62865576914 1.62459789757 
8.50650768967 -5.25731175845 0.0 
9.510565205 -2.62865576914 -1.62459789757 
-9.510565205 2.62865576914 -1.62459789757 
-8.50650768967 5.25731175845 0.0 
-9.510565205 2.62865576914 1.62459789757 
-9.510565205 -2.62865576914 -1.62459789757 
-8.50650768967 -5.25731175845 0.0 
-9.510565205 -2.62865576914 1.62459789757 
-1.62459789757 9.510565205 2.62865576914 
0.0 8.50650768967 5.25731175845 
1.62459789757 9.510565205 2.62865576914 
-1.62459789757 9.510565205 -2.62865576914 
0.0 8.50650768967 -5.25731175845 
1.62459789757 9.510565205 -2.62865576914 
2.62865576914 1.62459789757 -9.510565205 
2.62865576914 -1.62459789757 -9.510565205 
5.25731175845 0.0 -8.50650768967 
-2.62865576914 1.62459789757 -9.510565205 
-2.62865576914 -1.62459789757 -9.510565205 
-5.25731175845 0.0 -8.50650768967 
0.0 -8.50650768967 -5.25731175845 
-1.62459789757 -9.510565205 -2.62865576914 
1.62459789757 -9.510565205 -2.62865576914 
-1.62459789757 -9.510565205 2.62865576914 
1.62459789757 -9.510565205 2.62865576914 
0.0 -8.50650768967 5.25731175845 
2.62865576914 1.62459789757 9.510565205 
2.62865576914 -1.62459789757 9.510565205 
5.25731175845 0.0 8.50650768967 
-2.62865576914 1.62459789757 9.510565205 
-2.62865576914 -1.62459789757 9.510565205 
-5.25731175845 0.0 8.50650768967 
6.88191001227 4.25325402296 -5.8778520566 
4.25325402296 5.8778520566 -6.88191001227 
5.8778520566 6.88191001227 -4.25325402296 
5.8778520566 6.88191001227 4.25325402296 
6.88191001227 4.25325402296 5.8778520566 
4.25325402296 5.8778520566 6.88191001227 
-5.8778520566 6.88191001227 -4.25325402296 
-4.25325402296 5.8778520566 -6.88191001227 
-6.88191001227 4.25325402296 -5.8778520566 
-4.25325402296 5.8778520566 6.88191001227 
-5.8778520566 6.88191001227 4.25325402296 
-6.88191001227 4.25325402296 5.8778520566 
6.88191001227 -4.25325402296 -5.8778520566 
4.25325402296 -5.8778520566 -6.88191001227 
5.8778520566 -6.88191001227 -4.25325402296 
5.8778520566 -6.88191001227 4.25325402296 
6.88191001227 -4.25325402296 5.8778520566 
4.25325402296 -5.8778520566 6.88191001227 
-5.8778520566 -6.88191001227 -4.25325402296 
-6.88191001227 -4.25325402296 -5.8778520566 
-4.25325402296 -5.8778520566 -6.88191001227 
-4.25325402296 -5.8778520566 6.88191001227 
-5.8778520566 -6.88191001227 4.25325402296 
-6.88191001227 -4.25325402296 5.8778520566 
3 104 102 103 
3 105 106 107 
3 108 109 110 
3 112 113 111 
3 114 115 116 
3 117 118 119 
3 120 121 122 
3 123 124 125 
3 128 126 127 
3 129 130 131 
3 132 133 134 
3 136 137 135 
3 138 139 140 
3 141 142 143 
3 144 145 146 
3 147 148 149 
3 152 150 151 
3 153 154 155 
3 156 157 158 
3 160 161 159 
3 48 102 47 
3 81 78 103 
3 104 51 77 
3 49 105 47 
3 82 106 79 
3 107 52 77 
3 56 108 55 
3 90 109 86 
3 60 85 110 
3 57 55 111 
3 112 91 87 
3 113 85 61 
3 65 114 63 
3 97 115 95 
3 67 116 93 
3 64 117 63 
3 96 118 94 
3 66 93 119 
3 120 84 101 
3 121 83 71 
3 122 53 54 
3 89 123 101 
3 88 124 71 
3 58 59 125 
3 99 100 126 
3 98 70 127 
3 128 68 69 
3 129 98 75 
3 74 68 130 
3 131 44 45 
3 80 132 76 
3 42 133 46 
3 72 50 134 
3 92 76 135 
3 136 43 46 
3 73 62 137 
3 138 51 54 
3 96 139 84 
3 81 66 140 
3 67 141 78 
3 48 50 142 
3 80 97 143 
3 144 64 86 
3 89 94 145 
3 56 146 59 
3 147 92 95 
3 65 90 148 
3 60 149 62 
3 52 53 150 
3 99 83 151 
3 152 82 69 
3 153 74 79 
3 72 49 154 
3 42 155 44 
3 156 70 87 
3 57 58 157 
3 88 100 158 
3 43 45 159 
3 160 91 75 
3 73 61 161 
3 104 21 103 
3 104 17 102 
3 18 102 103 
3 105 107 17 
3 105 106 19 
3 106 107 22 
3 30 109 110 
3 25 108 110 
3 26 108 109 
3 112 113 31 
3 113 25 111 
3 112 27 111 
3 115 116 37 
3 33 114 116 
3 35 114 115 
3 36 118 119 
3 33 117 119 
3 34 117 118 
3 120 121 41 
3 121 122 23 
3 120 24 122 
3 28 124 125 
3 123 125 29 
3 41 123 124 
3 128 38 127 
3 128 126 39 
3 40 126 127 
3 129 131 15 
3 129 130 38 
3 130 131 14 
3 12 133 134 
3 20 132 134 
3 16 132 133 
3 136 137 13 
3 32 137 135 
3 136 16 135 
3 36 139 140 
3 138 140 21 
3 24 138 139 
3 20 142 143 
3 141 37 143 
3 18 141 142 
3 144 145 34 
3 145 146 29 
3 144 146 26 
3 148 149 30 
3 32 147 149 
3 35 148 147 
3 152 39 151 
3 152 22 150 
3 23 150 151 
3 153 155 14 
3 153 154 19 
3 154 155 12 
3 28 157 158 
3 40 156 158 
3 27 156 157 
3 160 161 31 
3 161 13 159 
3 160 15 159 
3 48 1 47 
3 48 18 102 
3 17 102 47 
3 81 21 103 
3 81 6 78 
3 18 78 103 
3 104 17 77 
3 104 51 21 
3 2 51 77 
3 49 1 47 
3 105 19 49 
3 105 17 47 
3 82 7 79 
3 106 19 79 
3 106 82 22 
3 2 52 77 
3 17 107 77 
3 107 52 22 
3 56 3 55 
3 56 26 108 
3 25 108 55 
3 26 109 86 
3 90 5 86 
3 90 109 30 
3 25 85 110 
3 60 30 110 
3 4 60 85 
3 57 27 111 
3 57 3 55 
3 25 55 111 
3 112 27 87 
3 112 91 31 
3 8 91 87 
3 113 85 25 
3 113 61 31 
3 4 61 85 
3 65 5 63 
3 65 114 35 
3 33 114 63 
3 97 11 95 
3 97 115 37 
3 35 115 95 
3 33 116 93 
3 67 93 6 
3 67 116 37 
3 64 5 63 
3 64 34 117 
3 33 117 63 
3 96 10 94 
3 96 36 118 
3 34 118 94 
3 33 93 119 
3 66 36 119 
3 66 93 6 
3 120 41 101 
3 120 24 84 
3 10 84 101 
3 121 41 71 
3 121 83 23 
3 9 83 71 
3 2 53 54 
3 24 122 54 
3 122 53 23 
3 89 10 101 
3 89 123 29 
3 41 123 101 
3 88 9 71 
3 88 28 124 
3 41 124 71 
3 59 125 29 
3 58 28 125 
3 3 58 59 
3 40 100 126 
3 99 126 39 
3 9 99 100 
3 40 70 127 
3 98 38 127 
3 8 98 70 
3 128 69 39 
3 128 68 38 
3 68 69 7 
3 129 75 15 
3 129 98 38 
3 8 98 75 
3 74 68 7 
3 130 68 38 
3 130 74 14 
3 0 44 45 
3 131 45 15 
3 131 44 14 
3 80 11 76 
3 80 20 132 
3 16 132 76 
3 16 133 46 
3 0 42 46 
3 42 12 133 
3 72 12 134 
3 72 1 50 
3 50 20 134 
3 16 76 135 
3 32 92 135 
3 92 11 76 
3 136 16 46 
3 136 43 13 
3 0 43 46 
3 73 4 62 
3 137 13 73 
3 32 137 62 
3 2 51 54 
3 24 138 54 
3 138 51 21 
3 96 10 84 
3 96 139 36 
3 24 139 84 
3 81 140 21 
3 81 66 6 
3 36 66 140 
3 18 141 78 
3 67 6 78 
3 67 141 37 
3 48 18 142 
3 48 1 50 
3 50 20 142 
3 80 97 11 
3 97 37 143 
3 80 20 143 
3 144 64 34 
3 64 5 86 
3 144 26 86 
3 89 10 94 
3 145 29 89 
3 145 34 94 
3 56 3 59 
3 56 146 26 
3 146 59 29 
3 11 92 95 
3 35 147 95 
3 32 147 92 
3 65 35 148 
3 65 90 5 
3 90 148 30 
3 32 149 62 
3 4 60 62 
3 60 149 30 
3 53 150 23 
3 52 22 150 
3 2 52 53 
3 23 83 151 
3 99 9 83 
3 39 99 151 
3 152 69 39 
3 152 82 22 
3 82 69 7 
3 153 19 79 
3 153 74 14 
3 74 7 79 
3 72 49 1 
3 49 154 19 
3 72 154 12 
3 155 44 14 
3 0 42 44 
3 42 155 12 
3 8 70 87 
3 27 156 87 
3 40 156 70 
3 57 27 157 
3 57 58 3 
3 58 28 157 
3 88 28 158 
3 88 9 100 
3 40 100 158 
3 15 45 159 
3 43 13 159 
3 0 43 45 
3 160 75 15 
3 8 91 75 
3 160 91 31 
3 73 4 61 
3 161 13 73 
3 161 61 31 
0 42 2 234 300 
0 43 2 313 244 
0 44 2 227 300 
0 45 2 313 227 
0 46 2 234 244 
1 47 2 140 149 
48 1 2 140 261 
1 49 2 296 149 
1 50 2 237 261 
2 51 2 248 148 
2 52 2 155 286 
2 53 2 200 286 
2 54 2 200 248 
3 55 2 168 158 
56 3 2 272 158 
57 3 2 168 306 
58 3 2 306 211 
3 59 2 272 211 
4 60 2 282 166 
4 61 2 317 175 
4 62 2 282 245 
5 63 2 176 185 
64 5 2 185 267 
65 5 2 176 279 
66 6 2 193 255 
67 6 2 258 183 
68 7 2 224 220 
69 7 2 220 292 
8 70 2 217 302 
9 71 2 206 199 
72 1 2 296 237 
73 4 2 245 317 
74 7 2 224 295 
8 75 2 315 223 
11 76 2 241 230 
2 77 2 155 148 
6 78 2 144 258 
7 79 2 152 295 
80 11 2 230 263 
81 6 2 144 255 
82 7 2 152 292 
9 83 2 288 199 
10 84 2 251 196 
4 85 2 166 175 
5 86 2 162 267 
8 87 2 172 302 
88 9 2 309 206 
89 10 2 203 269 
90 5 2 162 279 
8 91 2 315 172 
11 92 2 241 275 
93 6 2 193 183 
10 94 2 188 269 
11 95 2 275 179 
96 10 2 251 188 
97 11 2 179 263 
8 98 2 217 223 
9 99 2 288 214 
9 100 2 309 214 
10 101 2 203 196 
17 102 2 81 142 
18 103 2 145 82 
104 17 2 81 146 
17 105 2 83 151 
106 19 2 153 84 
17 107 2 83 156 
25 108 2 160 87 
26 109 2 88 161 
25 110 2 164 87 
25 111 2 169 90 
112 27 2 170 91 
25 113 2 90 173 
33 114 2 178 93 
35 115 2 181 94 
33 116 2 93 182 
33 117 2 96 187 
34 118 2 97 190 
33 119 2 96 191 
24 120 2 195 100 
121 23 2 99 198 
122 23 2 202 99 
123 29 2 204 102 
28 124 2 101 207 
28 125 2 210 101 
126 39 2 105 213 
38 127 2 104 216 
128 38 2 104 219 
129 15 2 107 221 
130 14 2 226 109 
131 14 2 109 229 
16 132 2 112 232 
12 133 2 235 110 
12 134 2 236 110 
16 135 2 115 239 
136 13 2 113 243 
137 13 2 113 246 
138 21 2 250 117 
24 139 2 253 118 
140 21 2 117 254 
18 141 2 121 257 
18 142 2 121 260 
20 143 2 265 119 
144 26 2 124 268 
145 29 2 123 270 
26 146 2 273 124 
32 147 2 277 126 
148 30 2 280 125 
149 30 2 283 125 
22 150 2 129 285 
23 151 2 130 287 
152 22 2 129 291 
153 14 2 131 294 
154 12 2 298 133 
155 12 2 133 301 
27 156 2 136 303 
27 157 2 136 305 
28 158 2 308 134 
13 159 2 312 138 
160 15 2 314 139 
161 13 2 138 318 
42 12 2 235 301 
43 13 2 312 243 
44 14 2 299 229 
45 15 2 228 311 
16 46 2 233 242 
17 47 2 142 151 
48 18 2 260 141 
49 19 2 297 150 
50 20 2 238 262 
51 21 2 250 147 
52 22 2 157 285 
53 23 2 202 284 
24 54 2 201 249 
25 55 2 160 169 
56 26 2 273 159 
57 27 2 305 167 
58 28 2 210 307 
59 29 2 209 274 
60 30 2 283 165 
61 31 2 174 319 
32 62 2 281 247 
33 63 2 178 187 
64 34 2 186 266 
65 35 2 177 278 
66 36 2 192 256 
67 37 2 184 259 
68 38 2 225 219 
69 39 2 218 290 
40 70 2 304 215 
41 71 2 208 197 
72 12 2 298 236 
73 13 2 246 318 
74 14 2 226 294 
75 15 2 314 221 
16 76 2 232 239 
17 77 2 146 156 
18 78 2 145 257 
19 79 2 153 293 
80 20 2 265 231 
81 21 2 254 143 
82 22 2 154 291 
83 23 2 198 287 
24 84 2 195 253 
25 85 2 164 173 
26 86 2 161 268 
27 87 2 170 303 
88 28 2 308 207 
89 29 2 204 270 
90 30 2 280 163 
91 31 2 171 316 
32 92 2 240 277 
33 93 2 182 191 
34 94 2 190 271 
35 95 2 276 181 
96 36 2 252 189 
97 37 2 264 180 
98 38 2 216 222 
99 39 2 289 213 
40 100 2 212 310 
41 101 2 194 205 
18 102 2 82 141 
21 103 2 80 143 
104 21 2 80 147 
105 19 2 84 150 
106 22 2 154 85 
107 22 2 85 157 
26 108 2 88 159 
109 30 2 163 86 
30 110 2 165 86 
27 111 2 91 167 
112 31 2 89 171 
113 31 2 89 174 
114 35 2 177 94 
115 37 2 92 180 
116 37 2 184 92 
34 117 2 97 186 
36 118 2 189 95 
36 119 2 192 95 
120 41 2 98 194 
41 121 2 98 197 
24 122 2 201 100 
41 123 2 205 103 
41 124 2 208 103 
29 125 2 209 102 
40 126 2 106 212 
40 127 2 106 215 
128 39 2 105 218 
129 38 2 108 222 
130 38 2 225 108 
131 15 2 107 228 
20 132 2 111 231 
16 133 2 112 233 
20 134 2 238 111 
32 135 2 240 114 
16 136 2 242 115 
32 137 2 114 247 
24 138 2 249 118 
139 36 2 116 252 
36 140 2 256 116 
37 141 2 120 259 
20 142 2 262 119 
37 143 2 120 264 
144 34 2 122 266 
145 34 2 122 271 
146 29 2 274 123 
35 147 2 276 127 
35 148 2 278 127 
32 149 2 281 126 
150 23 2 130 284 
39 151 2 128 289 
152 39 2 128 290 
153 19 2 132 293 
154 19 2 297 132 
155 14 2 299 131 
40 156 2 304 135 
28 157 2 307 134 
40 158 2 310 135 
15 159 2 139 311 
160 31 2 137 316 
161 31 2 137 319 
104 103 2 0 80 
104 102 2 0 81 
102 103 2 0 82 
105 107 2 1 83 
105 106 2 1 84 
106 107 2 1 85 
109 110 2 2 86 
108 110 2 2 87 
108 109 2 88 2 
112 113 2 89 3 
113 111 2 90 3 
112 111 2 3 91 
115 116 2 4 92 
114 116 2 4 93 
114 115 2 4 94 
118 119 2 5 95 
117 119 2 96 5 
117 118 2 97 5 
120 121 2 98 6 
121 122 2 99 6 
120 122 2 100 6 
124 125 2 101 7 
123 125 2 102 7 
123 124 2 7 103 
128 127 2 8 104 
128 126 2 8 105 
126 127 2 8 106 
129 131 2 9 107 
129 130 2 9 108 
130 131 2 9 109 
133 134 2 10 110 
132 134 2 10 111 
132 133 2 112 10 
136 137 2 113 11 
137 135 2 114 11 
136 135 2 11 115 
139 140 2 12 116 
138 140 2 12 117 
138 139 2 12 118 
142 143 2 13 119 
141 143 2 120 13 
141 142 2 121 13 
144 145 2 122 14 
145 146 2 123 14 
144 146 2 124 14 
148 149 2 125 15 
147 149 2 126 15 
147 148 2 15 127 
152 151 2 16 128 
152 150 2 16 129 
150 151 2 16 130 
153 155 2 17 131 
153 154 2 17 132 
154 155 2 17 133 
157 158 2 18 134 
156 158 2 18 135 
156 157 2 136 18 
160 161 2 137 19 
161 159 2 138 19 
160 159 2 19 139 
48 47 2 20 140 
48 102 2 20 141 
102 47 2 20 142 
81 103 2 21 143 
81 78 2 144 21 
78 103 2 145 21 
104 77 2 146 22 
104 51 2 147 22 
51 77 2 148 22 
49 47 2 149 23 
105 49 2 150 23 
105 47 2 23 151 
82 79 2 24 152 
106 79 2 24 153 
106 82 2 24 154 
52 77 2 25 155 
107 77 2 25 156 
107 52 2 25 157 
56 55 2 26 158 
56 108 2 26 159 
108 55 2 160 26 
109 86 2 161 27 
90 86 2 162 27 
90 109 2 27 163 
85 110 2 28 164 
60 110 2 28 165 
60 85 2 28 166 
57 111 2 29 167 
57 55 2 168 29 
55 111 2 169 29 
112 87 2 170 30 
112 91 2 171 30 
91 87 2 172 30 
113 85 2 173 31 
113 61 2 174 31 
61 85 2 31 175 
65 63 2 32 176 
65 114 2 32 177 
114 63 2 32 178 
97 95 2 33 179 
97 115 2 33 180 
115 95 2 33 181 
116 93 2 34 182 
67 93 2 34 183 
67 116 2 184 34 
64 63 2 185 35 
64 117 2 186 35 
117 63 2 35 187 
96 94 2 36 188 
96 118 2 36 189 
118 94 2 36 190 
93 119 2 37 191 
66 119 2 192 37 
66 93 2 193 37 
120 101 2 194 38 
120 84 2 195 38 
84 101 2 196 38 
121 71 2 197 39 
121 83 2 198 39 
83 71 2 39 199 
53 54 2 40 200 
122 54 2 40 201 
122 53 2 40 202 
89 101 2 41 203 
89 123 2 41 204 
123 101 2 41 205 
88 71 2 42 206 
88 124 2 42 207 
124 71 2 208 42 
59 125 2 209 43 
58 125 2 210 43 
58 59 2 43 211 
100 126 2 44 212 
99 126 2 44 213 
99 100 2 44 214 
70 127 2 45 215 
98 127 2 216 45 
98 70 2 217 45 
128 69 2 218 46 
128 68 2 219 46 
68 69 2 220 46 
129 75 2 221 47 
129 98 2 222 47 
98 75 2 47 223 
74 68 2 48 224 
130 68 2 48 225 
130 74 2 48 226 
44 45 2 49 227 
131 45 2 49 228 
131 44 2 49 229 
80 76 2 50 230 
80 132 2 50 231 
132 76 2 232 50 
133 46 2 233 51 
42 46 2 234 51 
42 133 2 51 235 
72 134 2 52 236 
72 50 2 52 237 
50 134 2 52 238 
76 135 2 53 239 
92 135 2 240 53 
92 76 2 241 53 
136 46 2 242 54 
136 43 2 243 54 
43 46 2 244 54 
73 62 2 245 55 
137 73 2 246 55 
137 62 2 55 247 
51 54 2 56 248 
138 54 2 56 249 
138 51 2 56 250 
96 84 2 57 251 
96 139 2 57 252 
139 84 2 57 253 
81 140 2 58 254 
81 66 2 58 255 
66 140 2 256 58 
141 78 2 257 59 
67 78 2 258 59 
67 141 2 59 259 
48 142 2 60 260 
48 50 2 60 261 
50 142 2 60 262 
80 97 2 61 263 
97 143 2 264 61 
80 143 2 265 61 
144 64 2 266 62 
64 86 2 267 62 
144 86 2 268 62 
89 94 2 269 63 
145 89 2 270 63 
145 94 2 63 271 
56 59 2 64 272 
56 146 2 64 273 
146 59 2 64 274 
92 95 2 65 275 
147 95 2 65 276 
147 92 2 65 277 
65 148 2 66 278 
65 90 2 66 279 
90 148 2 280 66 
149 62 2 281 67 
60 62 2 282 67 
60 149 2 67 283 
53 150 2 68 284 
52 150 2 68 285 
52 53 2 68 286 
83 151 2 69 287 
99 83 2 288 69 
99 151 2 289 69 
152 69 2 290 70 
152 82 2 291 70 
82 69 2 292 70 
153 79 2 293 71 
153 74 2 294 71 
74 79 2 71 295 
72 49 2 72 296 
49 154 2 72 297 
72 154 2 72 298 
155 44 2 73 299 
42 44 2 73 300 
42 155 2 73 301 
70 87 2 74 302 
156 87 2 74 303 
156 70 2 304 74 
57 157 2 305 75 
57 58 2 306 75 
58 157 2 75 307 
88 158 2 76 308 
88 100 2 76 309 
100 158 2 76 310 
45 159 2 77 311 
43 159 2 312 77 
43 45 2 313 77 
160 75 2 314 78 
91 75 2 315 78 
160 91 2 316 78 
73 61 2 317 79 
161 73 2 318 79 
161 61 2 79 319 
320 0 1 2 3 4 5 6 7 8 9 10 11 12 13 14 15 16 17 18 19 20 21 22 23 24 25 26 27 28 29 30 31 32 33 34 35 36 37 38 39 40 41 42 43 44 45 46 47 48 49 50 51 52 53 54 55 56 57 58 59 60 61 62 63 64 65 66 67 68 69 70 71 72 73 74 75 76 77 78 79 80 81 82 83 84 85 86 87 88 89 90 91 92 93 94 95 96 97 98 99 100 101 102 103 104 105 106 107 108 109 110 111 112 113 114 115 116 117 118 119 120 121 122 123 124 125 126 127 128 129 130 131 132 133 134 135 136 137 138 139 140 141 142 143 144 145 146 147 148 149 150 151 152 153 154 155 156 157 158 159 160 161 162 163 164 165 166 167 168 169 170 171 172 173 174 175 176 177 178 179 180 181 182 183 184 185 186 187 188 189 190 191 192 193 194 195 196 197 198 199 200 201 202 203 204 205 206 207 208 209 210 211 212 213 214 215 216 217 218 219 220 221 222 223 224 225 226 227 228 229 230 231 232 233 234 235 236 237 238 239 240 241 242 243 244 245 246 247 248 249 250 251 252 253 254 255 256 257 258 259 260 261 262 263 264 265 266 267 268 269 270 271 272 273 274 275 276 277 278 279 280 281 282 283 284 285 286 287 288 289 290 291 292 293 294 295 296 297 298 299 300 301 302 303 304 305 306 307 308 309 310 311 312 313 314 315 316 317 318 319 0 
